<?xml version="1.0" encoding="utf-8"?>
<!-- Generator: Adobe Illustrator 25.2.0, SVG Export Plug-In . SVG Version: 6.00 Build 0)  -->
<svg version="1.1" id="Calque_1" xmlns="http://www.w3.org/2000/svg" xmlns:xlink="http://www.w3.org/1999/xlink" x="0px" y="0px"
	 viewBox="0 0 45 33.8" style="enable-background:new 0 0 45 33.8;" xml:space="preserve">
<style type="text/css">
	.st0{fill:#00AC64;}
</style>
<path id="Icon_metro-profile" class="st0" d="M3.2,4.8C1.4,4.8,0,6.3,0,8v22.5c0,1.8,1.4,3.2,3.2,3.2h38.6c1.8,0,3.2-1.4,3.2-3.2
	l0,0V8c0-1.8-1.4-3.2-3.2-3.2l0,0h-3.1l-6.5,0H12.7L3.2,4.8z M12.9,12.6c1.9,0,3.5,2.1,3.5,4.6s-1.6,4.6-3.5,4.6s-3.5-2.1-3.5-4.6
	S10.9,12.6,12.9,12.6z M5.9,27.2c0,0,0.4-3.1,1.2-3.6c1.1-0.5,2.2-0.8,3.4-1c0,0,1.6,1.7,2.3,1.7s2.3-1.7,2.3-1.7
	c1.2,0.2,2.3,0.5,3.4,1c1,0.7,1.3,3.6,1.3,3.6H5.9z M38.6,25.7H24.1v-1.6h14.5V25.7z M38.6,22.5H24.1v-1.6h14.5V22.5z M38.6,19.3
	H24.1v-1.6h14.5V19.3z M38.6,16.1H24.1v-1.6h14.5V16.1z"/>
</svg>
